<svg xmlns="http://www.w3.org/2000/svg" xmlns:xlink="http://www.w3.org/1999/xlink" version="1.1" style="" xml:space="preserve" width="512" height="512"><rect id="backgroundrect" width="100%" height="100%" x="0" y="0" fill="none" stroke="none"/>
















<g class="currentLayer" style=""><title>Layer 1</title><g id="svg_1" class="selected" fill="#36c387" fill-opacity="1" stroke-opacity="1" stroke="#f8f8f8">
	<path d="M457.767,128.769h-34.125v-14.833c0-8.284-6.716-15-15-15s-15,6.716-15,15v14.833h-60V98.993   c0-25.325-20.604-45.929-45.93-45.929h-63.424c-25.326,0-45.93,20.604-45.93,45.929v29.776h-60v-15c0-8.284-6.716-15-15-15   s-15,6.716-15,15v15H54.233C24.329,128.769,0,153.098,0,183.002v221.533c0,29.904,24.329,54.233,54.233,54.233h352.164   c0.732,0.11,1.482,0.167,2.244,0.167s1.512-0.057,2.244-0.167h46.881c29.904,0,54.233-24.329,54.233-54.233V183.002   C512,153.098,487.671,128.769,457.767,128.769z M208.358,98.993c0-8.783,7.146-15.929,15.93-15.929h63.424   c8.783,0,15.93,7.146,15.93,15.929v29.776h-95.283V98.993z M393.642,158.769v270H118.358v-270H393.642z M30,404.536V183.002   c0-13.362,10.871-24.233,24.233-24.233h34.125v270H54.233C40.871,428.769,30,417.898,30,404.536z M482,404.536   c0,13.362-10.871,24.233-24.233,24.233h-34.125v-270h34.125c13.362,0,24.233,10.871,24.233,24.233V404.536z" id="svg_2" fill="#36c387" fill-opacity="1" stroke="#f8f8f8"/>
	<path d="M285.989,325.681c0.823,5.135,3.596,9.642,7.808,12.691c3.358,2.432,7.311,3.705,11.376,3.705   c1.034,0,2.077-0.083,3.118-0.25l42.736-6.837c5.136-0.821,9.645-3.594,12.694-7.806c3.051-4.212,4.278-9.359,3.457-14.497   l-6.837-42.732c-0.821-5.137-3.594-9.646-7.807-12.696c-4.212-3.051-9.363-4.273-14.496-3.457l-42.739,6.837   c-10.598,1.698-17.842,11.701-16.147,22.302L285.989,325.681z M332.381,285.088l3.511,21.942l-21.942,3.511l-3.511-21.942   L332.381,285.088z" id="svg_3" fill="#36c387" fill-opacity="1" stroke="#f8f8f8"/>
	<path d="M222.161,353.37c3.105-7.681-0.604-16.424-8.284-19.528l-48.975-19.8c-7.679-3.106-16.423,0.604-19.528,8.284   s0.604,16.424,8.284,19.528l48.975,19.8c1.842,0.745,3.745,1.098,5.617,1.098C214.183,362.751,219.801,359.208,222.161,353.37z" id="svg_4" fill="#36c387" fill-opacity="1" stroke="#f8f8f8"/>
	<path d="M306.425,363.68l-79.848,11.185c-8.204,1.148-13.923,8.731-12.773,16.936c1.05,7.498,7.474,12.921,14.836,12.921   c0.692,0,1.394-0.048,2.1-0.147l79.848-11.184c8.204-1.149,13.923-8.732,12.773-16.937S314.641,362.517,306.425,363.68z" id="svg_5" fill="#36c387" fill-opacity="1" stroke="#f8f8f8"/>
	<path d="M143.098,270.849c1.458,4.992,4.772,9.118,9.333,11.618l37.954,20.8c2.909,1.594,6.103,2.405,9.33,2.405   c1.833,0,3.677-0.262,5.484-0.79c4.993-1.458,9.12-4.773,11.618-9.333l20.8-37.953l0.001-0.003   c5.158-9.416,1.694-21.273-7.719-26.43l-37.951-20.799c-4.562-2.499-9.821-3.073-14.817-1.617   c-4.992,1.458-9.117,4.772-11.617,9.333l-20.797,37.949C142.215,260.591,141.64,265.855,143.098,270.849z M186.762,241.732   l19.486,10.68l-10.679,19.486l-19.487-10.679L186.762,241.732z" id="svg_6" fill="#36c387" fill-opacity="1" stroke="#f8f8f8"/>
</g></g></svg>