<?xml version="1.0" encoding="utf-8"?>
<!-- Generator: Adobe Illustrator 16.0.0, SVG Export Plug-In . SVG Version: 6.00 Build 0)  -->
<!DOCTYPE svg PUBLIC "-//W3C//DTD SVG 1.1//EN" "http://www.w3.org/Graphics/SVG/1.1/DTD/svg11.dtd">
<svg version="1.1" id="Layer_1" xmlns="http://www.w3.org/2000/svg" xmlns:xlink="http://www.w3.org/1999/xlink" x="0px" y="0px"
	 width="696.667px" height="215.333px" viewBox="0 0 696.667 215.333" enable-background="new 0 0 696.667 215.333"
	 xml:space="preserve">
<g id="Layer_2">
	<g>
		<g>
			<path fill="#36C387" d="M49.215,85.549l0.081,0.321c-0.161,0.48-0.214,0.83-0.161,1.043l0.321-0.08
				c0.321-0.268,0.722-0.429,1.204-0.482c1.656,0.695,2.567,1.498,2.728,2.408c0.052,0.373,0.454,0.855,1.204,1.443l0.24,1.203
				c0,0.215-0.108,0.35-0.32,0.402c0.641,0.91,1.043,1.926,1.203,3.049c0.052,1.553,0.107,2.406,0.16,2.566l11.474-8.825
				c1.604-0.589,2.354-1.256,2.247-2.006l0.963-0.241c4.225-2.889,9.199-4.84,14.924-5.857l0.642-0.08
				c3.743-0.693,7.515,1.658,11.313,7.061l0.883,4.814c1.283,7.382-2.167,14.391-10.352,21.021
				c-3.689,3.158-7.65,5.911-11.874,8.266c0.052,0.43-0.134,0.67-0.562,0.723h-1.605c0.107,0.642-1.07,1.392-3.529,2.246
				c0.16,0.695-1.473,1.846-4.895,3.449c0.052,0.481-1.766,1.258-5.457,2.327c0.053,0.269-0.535,0.591-1.765,0.964l-0.08-0.322
				l-0.562,0.402l-0.643,0.079l-0.722-0.159c0.16,0.854-2.247,1.926-7.222,3.209c-0.803,0.16-2.354-0.533-4.653-2.086l-2.167-1.285
				c-1.336,1.285-3.076,4.308-5.215,9.067c-2.674,5.136-4.921,9.013-6.74,11.634c0.055,0.428-0.588,1.737-1.926,3.932
				c-3.902,6.9-6.926,12.65-9.066,17.252c-0.48,0.052-2.834,3.932-7.061,11.634l-1.926,2.006c-2.995-0.963-5.482-3.343-7.461-7.142
				c-0.268,0.054-0.643-0.213-1.124-0.803c-0.642-3.744,1.392-10.832,6.099-21.262c1.443-1.605,2.139-2.596,2.086-2.969
				c-0.213,0-0.348-0.109-0.402-0.321c0.751-0.108,1.204-1.151,1.365-3.13c0.374-0.053,0.91-0.803,1.604-2.246l0.643,0.24
				c-0.053-0.374,0.535-1.473,1.766-3.289l-0.482-0.562c-0.052-0.269,0.59-0.91,1.926-1.926l6.9-10.992l3.21-4.172
				c1.713-0.964,2.781-2.246,3.21-3.853c-0.213,0.055-0.349-0.026-0.402-0.24l0.643-0.08l0.16,0.562h0.24
				c-0.106-0.642,0.695-1.656,2.408-3.049c3.902-5.08,7.141-11.42,9.708-19.017C45.336,92.664,47.611,87.046,49.215,85.549z
				 M49.857,122.62l10.752-5.457c2.138-1.176,3.903-2.354,5.295-3.529c1.605-0.322,4.681-2.516,9.228-6.581
				c1.336-0.213,4.653-3.076,9.949-8.585c1.657-2.193,2.595-3.663,2.808-4.413l-0.16-0.883h-0.32
				c-0.643,0.108-3.719,1.738-9.228,4.895c-5.616,2.355-14.952,9.869-28.003,22.547C49.749,120.667,49.644,121.334,49.857,122.62z"
				/>
			<path fill="#36C387" d="M156.09,77.606h0.642c3.21,1.392,4.814,2.997,4.814,4.813c0.212,0.75,0.321,1.926,0.321,3.531v0.963
				l-5.457,8.344l-7.702,10.592l-7.382,12.838c-6.74,12.144-10.912,18.987-12.517,20.54l-2.247,0.643
				c-1.658,0-2.728-1.283-3.209-3.853v-0.319c0-4.494,2.246-10.593,6.74-18.295v-0.963c-0.43,0-3.104,1.818-8.023,5.456
				c-6.312,4.922-10.806,7.382-13.48,7.382h-0.963c-3.639-1.23-5.455-2.729-5.455-4.492c-2.998-4.545-4.494-8.396-4.494-11.556
				c0-8.825,4.814-17.383,14.443-25.675c7.914-5.777,14.334-8.665,19.256-8.665h1.283c4.225,0,6.9,0.855,8.024,2.566l2.888,3.531
				c0,0.214-0.107,0.32-0.32,0.32l0.32,0.643v1.283l-0.641,0.963l0.641,0.963v0.32c-1.283,0-1.925,0.215-1.925,0.643
				c0.428,0.054,0.642,0.269,0.642,0.643h-0.32c0.212,0.429,0.32,0.75,0.32,0.962h0.321c0-0.909,1.496-2.514,4.493-4.813
				c0-0.428,2.032-2.996,6.098-7.703C154.164,78.14,155.127,77.606,156.09,77.606z M107.307,115.797v0.32h0.32
				c2.836,0,8.934-3.209,18.294-9.627c1.552-1.765,4.225-4.012,8.023-6.739c1.926-1.766,3.743-3.691,5.456-5.777l1.605-0.963
				c-0.215-0.428-0.321-0.749-0.321-0.963c-2.14-0.213-3.745-0.321-4.814-0.321c-3.799,0.535-7.756,2.247-11.875,5.136
				c-5.083,2.354-9.897,6.848-14.442,13.479C108.055,112.75,107.307,114.568,107.307,115.797z"/>
			<path fill="#36C387" d="M189.789,79.772c6.365-1.123,10.752-0.401,13.158,2.167c0.053,0.32,0.614,1.096,1.686,2.326l-0.241,0.803
				l0.481,0.642c-0.108,0.535-0.16,0.937-0.16,1.204c0.052,0.213,0.188,0.32,0.4,0.32c0.321,1.818-0.107,3.639-1.283,5.456
				c-1.177-0.052-2.006-0.026-2.487,0.081c-8.453,1.443-15.165,4.36-20.14,8.745c-8.665,6.259-14.39,13.372-17.17,21.343l0.16,1.123
				c1.176,0.054,2.033,0.028,2.568-0.08c5.135-0.909,9.547-2.325,13.238-4.252c0.053,0.269,0.16,0.374,0.32,0.32l0.241-0.724h1.926
				c1.391-0.267,2.434-0.963,3.13-2.086c0.373,0.215,0.802,0.271,1.283,0.162c-0.054-0.214,0.026-0.349,0.24-0.402l0.08,0.402
				c0.643-0.643,1.416-1.045,2.327-1.205l0.642-0.08l3.852,1.926l0.08,0.724l-0.4,1.203l0.08,0.319l0.4,0.724
				c-0.641,0.108-1.203,1.071-1.685,2.89c-1.658,1.872-3.88,3.77-6.659,5.696l0.08,0.319l0.562-0.08l0.161,0.723
				c-0.695,1.498-3.72,3.639-9.067,6.419l-0.642-0.239c-0.375,0.319-0.67,0.51-0.883,0.562l0.08,0.321l0.643-0.08l0.08,0.722
				c-1.979,0.589-3.504,0.991-4.574,1.203l-2.166,0.321c-5.616,1.015-11.312-5.457-17.09-19.418
				c-0.694-3.957,0.695-8.691,4.172-14.202c0.533-1.817,1.872-3.289,4.012-4.412c1.176-2.299,4.279-5.725,9.308-10.271
				c-0.321-1.871,4.305-5.161,13.881-9.869C188.104,80.843,189.896,80.253,189.789,79.772z M171.254,90.203l0.16,0.723
				c0.589-0.643,1.07-0.99,1.445-1.043l-0.08-0.321h-0.321C172.137,89.882,171.736,90.095,171.254,90.203z"/>
			<path fill="#36C387" d="M268.981,2.345c2.299-0.213,4.706,1.523,7.222,5.215l1.123,4.653
				c-5.244,20.649-10.752,35.839-16.529,45.574c-1.336,3.049-2.435,4.868-3.289,5.456c0.053,0.855-1.071,2.436-3.37,4.734
				c-6.046,9.467-9.468,14.551-10.271,15.244c-0.107,0.75-1.337,2.22-3.69,4.413c-1.713,3.103-2.836,4.682-3.37,4.733v0.321h0.401
				l17.732-8.023c0-0.268,0.106-0.401,0.321-0.401v0.321c4.921-2.46,7.995-3.852,9.227-4.173v0.321l-0.24,0.722l0.32-0.08
				l1.686-0.48l0.4,0.641c-0.374,0.055-0.67,0.671-0.883,1.846l1.044-0.16v0.723l-1.204,1.443l0.08,0.723
				c0.643-0.053,0.99,0.134,1.043,0.562c-0.534,0.054-1.685,1.177-3.449,3.37c-0.375,0.053-2.917,2.22-7.623,6.499
				c-4.226,2.515-7.141,4.602-8.746,6.259c-0.534,0.053-1.925,0.963-4.172,2.728c-3.744,1.497-5.564,2.808-5.455,3.933
				c-0.911,2.621-1.284,4.922-1.124,6.899l0.642,3.37h-0.32l0.4,0.723c0,0.213-0.107,0.32-0.32,0.32l0.4,0.643l0.322,4.092
				c0.106,0.803,0.32,1.818,0.641,3.05c-0.213,0.374-0.293,0.937-0.24,1.685l0.401,0.643c0.052,0.269-0.028,0.4-0.241,0.4
				l1.605,6.659c0.268,3.209-0.455,5.456-2.166,6.74h-0.322c-3.316-2.781-5.563-6.229-6.739-10.351
				c-1.284-3.959-2.888-10.645-4.813-20.061c-0.482-0.212-0.856-0.32-1.124-0.32c-3.157,0.32-5.696,2.487-7.622,6.5
				c-4.923,6.205-7.382,9.387-7.382,9.547c-1.177,2.141-3.45,4.842-6.82,8.104c0.108,0.751-0.401,1.498-1.524,2.247h-0.32
				c-0.213,0-0.321-0.107-0.321-0.32l-0.642,0.4c-0.643-0.215-2.193-2.246-4.654-6.098c-0.213-2.567,0.401-4.44,1.846-5.617
				l6.579-10.832c4.225-5.776,7.354-10.511,9.388-14.2l-0.401-0.643c-0.16-1.656,1.124-2.78,3.852-3.37
				c-0.054-0.428,6.712-10.377,20.3-29.848c-0.054-0.481,1.203-2.86,3.771-7.141c8.451-13.532,15.938-28.323,22.465-44.37
				C265.157,11.359,267.217,6.035,268.981,2.345z"/>
			<path fill="#36C387" d="M316.722,77.606h0.642c3.21,1.392,4.814,2.997,4.814,4.813c0.213,0.75,0.321,1.926,0.321,3.531v0.963
				l-5.456,8.344l-7.703,10.592l-7.381,12.838c-6.74,12.144-10.912,18.987-12.518,20.54l-2.246,0.643
				c-1.658,0-2.729-1.283-3.209-3.853v-0.319c0-4.494,2.246-10.593,6.739-18.295v-0.963c-0.429,0-3.103,1.818-8.023,5.456
				c-6.312,4.922-10.806,7.382-13.479,7.382h-0.963c-3.639-1.23-5.457-2.729-5.457-4.492c-2.996-4.545-4.492-8.396-4.492-11.556
				c0-8.825,4.814-17.383,14.441-25.675c7.916-5.777,14.335-8.665,19.258-8.665h1.283c4.225,0,6.9,0.855,8.023,2.566l2.889,3.531
				c0,0.214-0.108,0.32-0.32,0.32l0.32,0.643v1.283l-0.642,0.963l0.642,0.963v0.32c-1.283,0-1.926,0.215-1.926,0.643
				c0.428,0.054,0.643,0.269,0.643,0.643h-0.321c0.212,0.429,0.321,0.75,0.321,0.962h0.32c0-0.909,1.496-2.514,4.493-4.813
				c0-0.428,2.032-2.996,6.099-7.703C314.797,78.14,315.76,77.606,316.722,77.606z M267.938,115.797v0.32h0.321
				c2.834,0,8.933-3.209,18.293-9.627c1.552-1.765,4.225-4.012,8.023-6.739c1.926-1.766,3.744-3.691,5.457-5.777l1.604-0.963
				c-0.214-0.428-0.321-0.749-0.321-0.963c-2.14-0.213-3.744-0.321-4.814-0.321c-3.799,0.535-7.756,2.247-11.875,5.136
				c-5.082,2.354-9.896,6.848-14.441,13.479C268.688,112.75,267.938,114.568,267.938,115.797z"/>
		</g>
		<g>
			<path fill="none" d="M693.156,35.069c-0.018-0.001-0.045,0.018-0.084,0.057l0.102-0.04
				C693.169,35.074,693.164,35.069,693.156,35.069z"/>
			<path fill="#FFFFFF" stroke="#000000" stroke-width="3" stroke-miterlimit="10" d="M643.679,128.883
				c16.652-34.241,44.873-84.521,48.051-89.59c0.875-1.522,2.66-5.46,2.285-6.147c-0.061-0.188-1.332-0.985-5.949,1.238
				l-89.129,42.957c-1.176,0.514-5.227,2.271-5.107,3.555c0.117,1.281,4.375,1.86,5.629,2.162l34.584,6.117l3.994,38.867
				c0.217,1.283,0.818,5.295,2.104,5.354C641.289,133.418,643.166,129.937,643.679,128.883z M643.011,129.217
				c16.652-34.241,44.875-84.521,48.053-89.591c0.875-1.522,2.66-5.459,2.285-6.146c-0.062-0.188-1.332-0.986-5.951,1.238
				l-89.129,42.956c-1.176,0.514-5.227,2.272-5.107,3.556c0.117,1.281,4.375,1.859,5.631,2.162l34.584,6.117l3.992,38.867
				c0.219,1.283,0.818,5.295,2.105,5.354C640.623,133.752,642.5,130.27,643.011,129.217z M691.728,39.293
				c0.875-1.522,2.662-5.46,2.287-6.147c-0.062-0.188-1.812-0.625-5.951,1.238"/>
		</g>
		<g>
			<path fill="#36C387" d="M406.105,98.307c4.975-5.776,7.811-10.216,8.506-13.318c-0.643-0.108-1.445-0.669-2.408-1.686
				l-4.012,2.247c-3.639,2.408-5.43,4.066-5.375,4.975l-0.643-0.241l-22.146,22.867c-7.062,6.046-14.042,11.182-20.942,15.406
				l-0.08-1.605c2.193-5.724,3.797-9.52,4.814-11.394c2.514-5.509,3.717-8.718,3.61-9.628l-0.24-3.209
				c-0.269-2.996-2.356-4.762-6.259-5.297c-1.873,0.161-5.028,2.381-9.469,6.66c-6.418,5.778-10.083,9.202-10.991,10.271
				c-9.521,8.772-14.711,13.212-15.565,13.319l-0.08-0.643c2.354-3.477,4.385-7.193,6.098-11.152
				c2.086-3.316,3.129-5.135,3.129-5.457c7.649-10.43,12.463-16.527,14.442-18.293c1.657-1.07,2.834-3.662,3.53-7.783l-0.4-0.562
				c0.213-0.051,0.32-0.186,0.32-0.401l-0.08-0.642c-0.107-1.605-0.963-3.021-2.566-4.253c-2.729-1.711-4.12-2.887-4.173-3.529
				l-0.32,0.08c-1.393,0.107-5.244,4.2-11.555,12.274c-13.853,20.168-21.129,35.197-21.824,45.094l0.241,2.246
				c4.225,7.754,7.141,11.58,8.745,11.475c1.874-0.375,2.782-0.776,2.729-1.205c3.049-1.282,7.835-5.588,14.362-12.918
				c7.915-7.381,11.875-11.26,11.875-11.633l0.963-0.082v0.322c-0.535,1.497-0.937,4.225-1.204,8.184l0.079,0.643
				c2.89,7.223,5.671,10.725,8.347,10.512c0.479-0.053,0.882-0.188,1.203-0.4l0.722,0.24c2.407-0.213,6.792-2.756,13.159-7.623
				c6.899-5.348,13.72-11.955,20.46-19.818C398.992,106.52,403.324,101.838,406.105,98.307z"/>
			<path fill="#36C387" d="M411.72,124.786c0,1.764,1.818,3.262,5.457,4.492h0.963c2.674,0,7.168-2.46,13.48-7.382
				c4.92-3.638,7.592-5.456,8.021-5.456v0.963c-4.492,7.702-6.738,13.801-6.738,18.295v0.319c0.48,2.569,1.551,3.853,3.209,3.853
				l2.246-0.643c1.605-1.553,5.777-8.396,12.518-20.54l7.381-12.838l7.703-10.592l5.457-8.344V85.95
				c0-1.605-0.109-2.781-0.322-3.531c0-1.816-1.604-3.421-4.812-4.813h-0.643c-0.963,0-1.926,0.534-2.889,1.605
				c-4.066,4.707-6.098,7.275-6.098,7.703c-2.998,2.299-4.494,3.904-4.494,4.813h-0.32c0-0.212-0.109-0.533-0.32-0.962h0.32
				c0-0.374-0.215-0.589-0.643-0.643c0-0.428,0.643-0.643,1.926-0.643v-0.32l-0.643-0.963l0.643-0.963V85.95l-0.32-0.643
				c0.213,0,0.32-0.106,0.32-0.32l-2.889-3.531c-1.123-1.711-3.799-2.566-8.023-2.566h-1.283c-4.922,0-11.342,2.888-19.258,8.665
				c-9.627,8.292-14.441,16.85-14.441,25.675C407.228,116.389,408.724,120.241,411.72,124.786z M416.855,115.797
				c0-1.229,0.75-3.047,2.246-5.455c4.547-6.631,9.361-11.125,14.443-13.479c4.119-2.889,8.076-4.601,11.875-5.136
				c1.07,0,2.674,0.108,4.814,0.321c0,0.214,0.105,0.535,0.32,0.963l-1.605,0.963c-1.713,2.086-3.529,4.011-5.455,5.777
				c-3.799,2.727-6.473,4.974-8.023,6.739c-9.359,6.418-15.459,9.627-18.295,9.627h-0.32V115.797z"/>
			<path fill="#36C387" d="M692.267,34.522c-0.438-0.562-2.479,0.438-3.312,1.188c-24.01,23.193-62.271,62.576-126.801,97.244
				c-20.23,10.868-41.762,19.246-64.01,24.894c2.391-1.979,3.89-2.976,4.484-2.976c1.443-2.033,3.049-3.638,4.814-4.813
				c8.451-8.774,13.801-14.121,16.047-16.048L536.968,117c6.42-9.253,9.629-14.709,9.629-16.368l-0.32-0.642h0.32
				c0-2.514-0.32-4.867-0.963-7.061c-0.535-0.802-2.354-1.978-5.457-3.531c-1.443,0-5.188,1.819-11.232,5.457
				c-0.91,0.856-4.545,3.209-10.912,7.061c-3.316,2.568-5.242,3.852-5.775,3.852c-17.6,12.465-29.154,18.883-34.662,19.256
				l-0.643-0.319c0-3.156,2.674-9.359,8.023-18.616c7.273-8.827,10.912-14.069,10.912-15.727c-0.215-2.674-0.32-4.064-0.32-4.172
				c0-1.926-1.818-3.743-5.457-5.456h-0.963l-3.209,2.568c-6.15,7.222-9.789,11.929-10.912,14.121
				c-5.564,9.629-8.346,17.225-8.346,22.788v2.246c0.643,2.889,2.248,6.207,4.814,9.949c0,2.621,2.139,4.868,6.42,6.739h3.529
				c2.137-0.429,4.385-1.175,6.738-2.246c6.367-3.53,10.111-5.989,11.234-7.381l0.641,0.319c1.928-1.07,2.891-1.711,2.891-1.926
				c2.246-2.033,8.771-6.311,19.578-12.838v0.643c-5.084,6.793-11.395,14.175-18.938,22.146
				c-5.188,5.401-10.75,10.752-16.688,16.048c-5.137,4.012-7.703,6.471-7.703,7.381l-0.643-0.32
				c-0.643,0.32-0.963,0.643-0.963,0.963h0.643v0.068c-17.957,2.687-36.251,2.803-53.346,9.873
				c-8.394,3.47-15.546,8.464-21.299,14.994c-0.044,0.034-0.089,0.065-0.133,0.1c-2.941,2.779-4.656,4.173-5.135,4.173
				c-3.852,5.668-5.777,8.985-5.777,9.948v4.172c0,0.695,0.642,1.979,1.926,3.853c1.391,2.779,4.064,4.173,8.023,4.173
				c0.268,0,1.336-0.109,3.209-0.322l0.643,0.322c3.156-0.431,6.15-1.178,8.986-2.246c5.135-1.285,7.701-2.248,7.701-2.89
				c2.838-0.642,4.334-1.177,4.494-1.604c3.904-1.605,8.184-3.744,12.838-6.418c0-0.375-0.213-0.59-0.643-0.644
				c0-0.374,0.213-0.59,0.643-0.642h0.641v0.32c0.803,0,1.338-0.108,1.605-0.32l-0.32-0.643l-0.643,0.32h-0.32v-0.643
				c0.641,0,1.393-0.213,2.246-0.642l0.643,0.32c4.385-2.194,6.848-3.798,7.381-4.813c1.283-0.803,1.928-1.445,1.928-1.927
				c2.727-2.14,4.332-3.209,4.812-3.209c6.793-5.135,10.322-7.702,10.592-7.702l0.643,0.321h0.32
				c0.643-1.284,1.283-1.927,1.926-1.927c0.801-1.071,1.334-1.604,1.604-1.604c0,0.213,0.107,0.32,0.32,0.32
				c3.211-1.766,5.457-3.479,6.74-5.137c1.661-0.83,2.724-1.443,3.212-1.848c1.777-0.265,3.552-0.55,5.321-0.886
				c13.359-2.54,26.473-6.188,39.297-10.692c49.781-17.488,81.584-42.774,120.266-77.872c11.613-10.537,42.438-43.312,42.438-43.312
				S692.699,35.077,692.267,34.522z M457.054,177.34c-4.492,2.779-6.74,4.601-6.74,5.455l-0.643-0.319h-0.32
				c0,0.319-0.213,0.749-0.643,1.282c-1.283,0.162-1.926,0.484-1.926,0.963c-1.014,0-3.689,1.498-8.023,4.494
				c-7.221,4.813-15.031,8.877-23.428,12.195h-0.963l-6.74,2.567c-0.373-0.214-0.803-0.321-1.283-0.321h-0.32
				c-0.373,0.373-1.658,0.694-3.854,0.963c0-0.213-0.318-0.429-0.963-0.642l0.322-1.604c0.59-0.588,3.049-3.262,7.381-8.022
				c1.072-1.285,4.084-5.683,9.75-10.017c5.262-4.866,8.435-6.323,13.012-7.892c8.652-2.344,17.733-3.177,26.619-3.905
				c1.898-0.155,3.798-0.305,5.697-0.454L457.054,177.34z"/>
		</g>
	</g>
</g>
<g id="Layer_4">
</g>
</svg>
